<?xml version="1.0" encoding="UTF-8" standalone="no"?>
<!-- Created with Inkscape (http://www.inkscape.org/) -->

<svg
   xmlns:dc="http://purl.org/dc/elements/1.1/"
   xmlns:cc="http://creativecommons.org/ns#"
   xmlns:rdf="http://www.w3.org/1999/02/22-rdf-syntax-ns#"
   xmlns:svg="http://www.w3.org/2000/svg"
   xmlns="http://www.w3.org/2000/svg"
   xmlns:sodipodi="http://sodipodi.sourceforge.net/DTD/sodipodi-0.dtd"
   xmlns:inkscape="http://www.inkscape.org/namespaces/inkscape"
   width="1052.3622"
   height="744.09448"
   id="svg2"
   version="1.1"
   inkscape:version="0.48.4 r9939"
   sodipodi:docname="New document 1">
  <defs
     id="defs4">
    <marker
       inkscape:stockid="Arrow1Mstart"
       orient="auto"
       refY="0.0"
       refX="0.0"
       id="Arrow1Mstart"
       style="overflow:visible">
      <path
         id="path3769"
         d="M 0.0,0.0 L 5.0,-5.0 L -12.5,0.0 L 5.0,5.0 L 0.0,0.0 z "
         style="fill-rule:evenodd;stroke:#000000;stroke-width:1.0pt"
         transform="scale(0.4) translate(10,0)" />
    </marker>
    <marker
       inkscape:stockid="Arrow1Mend"
       orient="auto"
       refY="0.0"
       refX="0.0"
       id="Arrow1Mend"
       style="overflow:visible;">
      <path
         id="path3772"
         d="M 0.0,0.0 L 5.0,-5.0 L -12.5,0.0 L 5.0,5.0 L 0.0,0.0 z "
         style="fill-rule:evenodd;stroke:#000000;stroke-width:1.0pt;"
         transform="scale(0.4) rotate(180) translate(10,0)" />
    </marker>
    <marker
       inkscape:stockid="Arrow1Mend"
       orient="auto"
       refY="0"
       refX="0"
       id="Arrow1Mend-2"
       style="overflow:visible">
      <path
         inkscape:connector-curvature="0"
         id="path3772-0"
         d="M 0,0 5,-5 -12.5,0 5,5 0,0 z"
         style="fill-rule:evenodd;stroke:#000000;stroke-width:1pt"
         transform="matrix(-0.4,0,0,-0.4,-4,0)" />
    </marker>
    <marker
       inkscape:stockid="Arrow1Mend"
       orient="auto"
       refY="0"
       refX="0"
       id="marker4611"
       style="overflow:visible">
      <path
         inkscape:connector-curvature="0"
         id="path4613"
         d="M 0,0 5,-5 -12.5,0 5,5 0,0 z"
         style="fill-rule:evenodd;stroke:#000000;stroke-width:1pt"
         transform="matrix(-0.4,0,0,-0.4,-4,0)" />
    </marker>
    <marker
       inkscape:stockid="Arrow1Mend"
       orient="auto"
       refY="0"
       refX="0"
       id="marker4615"
       style="overflow:visible">
      <path
         inkscape:connector-curvature="0"
         id="path4617"
         d="M 0,0 5,-5 -12.5,0 5,5 0,0 z"
         style="fill-rule:evenodd;stroke:#000000;stroke-width:1pt"
         transform="matrix(-0.4,0,0,-0.4,-4,0)" />
    </marker>
  </defs>
  <sodipodi:namedview
     id="base"
     pagecolor="#ffffff"
     bordercolor="#666666"
     borderopacity="1.0"
     inkscape:pageopacity="0.0"
     inkscape:pageshadow="2"
     inkscape:zoom="1"
     inkscape:cx="411.71041"
     inkscape:cy="360"
     inkscape:document-units="px"
     inkscape:current-layer="layer1"
     showgrid="false"
     inkscape:window-width="1885"
     inkscape:window-height="1056"
     inkscape:window-x="35"
     inkscape:window-y="24"
     inkscape:window-maximized="1" />
  <metadata
     id="metadata7">
    <rdf:RDF>
      <cc:Work
         rdf:about="">
        <dc:format>image/svg+xml</dc:format>
        <dc:type
           rdf:resource="http://purl.org/dc/dcmitype/StillImage" />
        <dc:title></dc:title>
      </cc:Work>
    </rdf:RDF>
  </metadata>
  <g
     inkscape:label="Layer 1"
     inkscape:groupmode="layer"
     id="layer1"
     transform="translate(0,-308.2677)">
    <text
       xml:space="preserve"
       style="font-size:11px;font-style:normal;font-variant:normal;font-weight:normal;font-stretch:normal;line-height:125%;letter-spacing:0px;word-spacing:0px;fill:#000000;fill-opacity:1;stroke:none;font-family:Courier;-inkscape-font-specification:Courier"
       x="85"
       y="111.09448"
       id="text2985"
       sodipodi:linespacing="125%"
       transform="translate(0,308.2677)"><tspan
         sodipodi:role="line"
         id="tspan2987"
         x="85"
         y="111.09448">Zapier </tspan></text>
    <path
       style="opacity:0.74897113999999998;fill:#000000;fill-opacity:1;stroke:none;stroke-width:0.2;stroke-miterlimit:4;stroke-dasharray:none;marker-end:url(#Arrow1Mend)"
       id="path2989"
       d="m 150.63785,101.83956 c 4.32603,-0.32871 8.65814,-0.54093 12.99374,-0.68661 3.33161,-0.1066 6.66529,-0.12079 9.99832,-0.12226 3.2778,-0.004 6.5556,0.0103 9.83339,0.0165 3.867,0.004 7.73401,0.0123 11.60101,0.004 3.31017,0.006 6.62031,-0.0156 9.93046,-0.0161 2.73333,-0.17306 5.41976,0.34281 8.1212,0.66287 2.07704,0.17606 4.11219,0.21455 6.13939,0.70843 1.72489,0.42519 3.50186,0.51423 5.26942,0.57809 1.67962,0.48537 3.38807,0.77029 5.12726,0.91494 1.92249,0.12364 3.8501,0.12225 5.7757,0.1269 2.28601,0.37014 4.55443,0.69759 6.80742,1.23157 1.04857,0.25643 2.1169,0.40081 3.18584,0.5368 0,0 -11.33313,7.98497 -11.33313,7.98497 l 0,0 c -1.08627,-0.17926 -2.17031,-0.37015 -3.23985,-0.63508 -2.18533,-0.48578 -4.41527,-0.80744 -6.64719,-0.97043 -1.95613,-0.0158 -3.9164,-0.0304 -5.86423,-0.23145 -1.70968,-0.21223 -3.37338,-0.63993 -5.07901,-0.85648 -1.82244,-0.113 -3.63741,-0.30927 -5.4118,-0.76034 -1.98915,-0.38391 -4.02827,-0.31408 -6.02973,-0.62979 -2.65652,-0.34609 -5.30835,-0.69013 -7.9964,-0.54179 -3.29539,-4.3e-4 -6.59076,-0.0222 -9.88617,-0.0162 -3.86882,-0.009 -7.73765,-0.002 -11.60647,-5.4e-4 -3.28724,0.003 -6.57448,0.01 -9.86172,0.008 -3.30572,0.009 -6.61179,0.0187 -9.91639,0.11602 -4.3515,0.14117 -8.70735,0.34022 -13.03365,0.84915 0,0 11.12259,-8.27061 11.12259,-8.27061 z"
       inkscape:connector-curvature="0"
       transform="translate(0,308.2677)" />
    <text
       xml:space="preserve"
       style="font-size:11px;font-style:normal;font-variant:normal;font-weight:normal;font-stretch:normal;line-height:125%;letter-spacing:0px;word-spacing:0px;fill:#000000;fill-opacity:1;stroke:none;font-family:Courier;-inkscape-font-specification:Courier"
       x="273"
       y="107.09448"
       id="text4203"
       sodipodi:linespacing="125%"
       transform="translate(0,308.2677)"><tspan
         sodipodi:role="line"
         id="tspan4205"
         x="273"
         y="107.09448">Firebase</tspan></text>
    <path
       style="fill:none;stroke:#000000;stroke-width:1px;stroke-linecap:butt;stroke-linejoin:miter;stroke-opacity:1;marker-end:url(#Arrow1Mend)"
       d="m 343,414.36218 c 37.66841,-0.18306 170.34443,-2.10115 208,-1.00003"
       id="path4391"
       inkscape:connector-curvature="0"
       sodipodi:nodetypes="cc" />
    <text
       xml:space="preserve"
       style="font-size:11px;font-style:normal;font-variant:normal;font-weight:normal;font-stretch:normal;line-height:125%;letter-spacing:0px;word-spacing:0px;fill:#000000;fill-opacity:1;stroke:none;font-family:Courier;-inkscape-font-specification:Courier"
       x="562"
       y="105.09448"
       id="text4575"
       sodipodi:linespacing="125%"
       transform="translate(0,308.2677)"><tspan
         sodipodi:role="line"
         id="tspan4577"
         x="562"
         y="105.09448">Twitter Wall</tspan></text>
    <text
       xml:space="preserve"
       style="font-size:11px;font-style:normal;font-variant:normal;font-weight:normal;font-stretch:normal;line-height:125%;letter-spacing:0px;word-spacing:0px;fill:#000000;fill-opacity:1;stroke:none;font-family:Courier;-inkscape-font-specification:Courier"
       x="88"
       y="402.09448"
       id="text4579"
       sodipodi:linespacing="125%"
       transform="translate(0,308.2677)"><tspan
         sodipodi:role="line"
         id="tspan4581"
         x="88"
         y="402.09448">purescript-firebase-plain</tspan></text>
    <text
       xml:space="preserve"
       style="font-size:11px;font-style:normal;font-variant:normal;font-weight:normal;font-stretch:normal;line-height:125%;letter-spacing:0px;word-spacing:0px;fill:#000000;fill-opacity:1;stroke:none;font-family:Courier;-inkscape-font-specification:Courier"
       x="88"
       y="464.09448"
       id="text4583"
       sodipodi:linespacing="125%"
       transform="translate(0,308.2677)"><tspan
         sodipodi:role="line"
         id="tspan4585"
         x="88"
         y="464.09448">purescript-firebase-signal</tspan></text>
    <text
       xml:space="preserve"
       style="font-size:11px;font-style:normal;font-variant:normal;font-weight:normal;font-stretch:normal;line-height:125%;letter-spacing:0px;word-spacing:0px;fill:#000000;fill-opacity:1;stroke:none;font-family:Courier;-inkscape-font-specification:Courier"
       x="132"
       y="484.09448"
       id="text4587"
       sodipodi:linespacing="125%"
       transform="translate(0,308.2677)"><tspan
         sodipodi:role="line"
         id="tspan4589"
         x="132"
         y="484.09448">Library with Aff, Co-routines that has signals for on-child-added etc, so it integrates easily with halogen and react, </tspan><tspan
         sodipodi:role="line"
         x="132"
         y="497.84448"
         id="tspan4597">without being tied to a specific GUI library.</tspan></text>
    <text
       xml:space="preserve"
       style="font-size:11px;font-style:normal;font-variant:normal;font-weight:normal;font-stretch:normal;line-height:125%;letter-spacing:0px;word-spacing:0px;fill:#000000;fill-opacity:1;stroke:none;font-family:Courier;-inkscape-font-specification:Courier"
       x="136"
       y="421.09448"
       id="text4591"
       sodipodi:linespacing="125%"
       transform="translate(0,308.2677)"><tspan
         sodipodi:role="line"
         id="tspan4593"
         x="136"
         y="421.09448">literal use of firebase api, not sure if on-child-added will even work. Firebase has lots of callbacks, and translation / getting</tspan><tspan
         sodipodi:role="line"
         x="136"
         y="434.84448"
         id="tspan4595">of the value object everywhere could be painful</tspan></text>
    <path
       style="fill:none;stroke:#000000;stroke-width:0.91872400000000021px;stroke-linecap:butt;stroke-linejoin:miter;stroke-opacity:1;marker-end:url(#marker4615);marker-start:url(#Arrow1Mstart)"
       d="m 341.9765,423.60827 c 18.23909,3.49752 33.76736,14.62261 50.01815,23.02165 35.03466,19.74512 68.71665,42.13267 105.38863,58.80771 11.73196,4.59535 24.42609,4.53946 36.80576,4.19386"
       id="path4391-5"
       inkscape:connector-curvature="0" />
    <text
       xml:space="preserve"
       style="font-size:11px;font-style:normal;font-variant:normal;font-weight:normal;font-stretch:normal;line-height:125%;letter-spacing:0px;word-spacing:0px;fill:#000000;fill-opacity:1;stroke:none;font-family:Courier;-inkscape-font-specification:Courier"
       x="545.01709"
       y="509.62762"
       id="text4575-2"
       sodipodi:linespacing="125%"><tspan
         sodipodi:role="line"
         id="tspan4577-8"
         x="545.01709"
         y="509.62762">Select tweets</tspan></text>
    <text
       xml:space="preserve"
       style="font-size:11px;font-style:normal;font-variant:normal;font-weight:normal;font-stretch:normal;line-height:125%;letter-spacing:0px;word-spacing:0px;opacity:0.86419756;fill:#e70000;fill-opacity:1;stroke:none;font-family:Courier;-inkscape-font-specification:Courier"
       x="432"
       y="463.36218"
       id="text5246"
       sodipodi:linespacing="125%"><tspan
         sodipodi:role="line"
         id="tspan5248"
         x="432"
         y="463.36218">Auth</tspan></text>
  </g>
</svg>
